<?xml version="1.0" encoding="UTF-8" standalone="no"?>
<!DOCTYPE svg PUBLIC "-//W3C//DTD SVG 1.1//EN" "http://www.w3.org/Graphics/SVG/1.1/DTD/svg11.dtd">
<svg width="100%" height="100%" viewBox="0 0 1280 459" version="1.1" xmlns="http://www.w3.org/2000/svg" xmlns:xlink="http://www.w3.org/1999/xlink" xml:space="preserve" xmlns:serif="http://www.serif.com/" style="fill-rule:evenodd;clip-rule:evenodd;stroke-linejoin:round;stroke-miterlimit:2;">
    <g transform="matrix(1,0,0,1,0,-170.5)">
        <g transform="matrix(1.20983,0,0,0.856343,-268.582,42.9049)">
            <path d="M1280,283L1280,551C1280,624.957 1237.5,685 1185.15,685L316.848,685C264.5,685 222,624.957 222,551L222,283C222,209.043 264.5,149 316.848,149L1185.15,149C1237.5,149 1280,209.043 1280,283Z" style="fill:rgb(8,173,181);"/>
        </g>
        <g transform="matrix(1.11185,0,0,1.11185,101.283,-144.779)">
            <g transform="matrix(180,0,0,180,755.7,534)">
            </g>
            <text x="78px" y="534px" style="font-family:'Bitter-Regular', 'Bitter';font-size:180px;fill:white;">Contact</text>
        </g>
        <g transform="matrix(1,0,0,1,852.485,400)">
            <g transform="matrix(1,0,0,1,-227.5,-201.5)">
                <g transform="matrix(1,0,0,1,-540,-168.526)">
                    <g transform="matrix(1,0,0,1,753,172)">
                        <path d="M0,0C1.188,0.201 1.188,0.201 2.401,0.406C35.599,6.284 66.027,21.854 92,43C92.546,43.443 93.093,43.887 93.656,44.344C104.031,52.815 113.496,61.793 121.855,72.305C123.204,74 124.579,75.675 125.988,77.32C157.068,114.068 167.282,167.671 163.38,214.446C161.12,238.751 161.12,238.751 157,243C150.877,246.335 134.04,250 132,250C131.873,241.348 132.243,232.865 133,224.25C135.038,198.483 134.631,173.864 127,149C126.692,147.967 126.384,146.935 126.066,145.871C123.979,139.227 114.172,117.646 113.746,116.434C112.23,112.404 110.314,108.728 108.063,105.063C107.679,104.431 107.296,103.8 106.901,103.15C102.366,95.803 97.383,88.769 92.303,81.792C91.248,80.341 90.208,78.881 89.172,77.418C80.701,65.888 69.739,56.066 58,48C57.421,47.598 56.843,47.197 56.247,46.783C18.703,20.798 -0.165,6.199 -46,8.238C-46.767,8.272 -70.537,10.249 -77.323,11.238C-91.709,13.335 -114.359,22.898 -116.5,23.625C-132.097,29.744 -146.363,41.385 -158.469,52.656C-160.685,54.708 -162.945,56.675 -165.25,58.625C-168.426,61.392 -171.159,64.348 -173.879,67.559C-177.247,71.435 -180.778,75.159 -184.294,78.901C-184.828,79.472 -185.363,80.044 -185.914,80.633C-186.439,81.189 -186.964,81.745 -187.505,82.317C-189.026,83.972 -189.026,83.972 -190.3,85.8C-191.523,87.492 -191.523,87.492 -194,90C-198.921,90.167 -202.662,87.802 -206.875,85.438C-208.027,84.797 -209.18,84.156 -210.367,83.496C-211.236,83.002 -212.105,82.509 -213,82C-211.781,72.57 -203.226,64.922 -197.023,58.211C-195.415,56.453 -193.911,54.681 -192.438,52.813C-186.987,46.524 -180.221,41.47 -173.625,36.438C-172.882,35.87 -172.139,35.303 -171.373,34.719C-166.114,30.748 -160.781,27.172 -155,24C-154.327,23.587 -153.654,23.175 -152.961,22.75C-146.441,18.843 -139.401,16.355 -132.271,13.818C-129.948,12.981 -127.638,12.112 -125.328,11.238C-86.02,-3.388 -41.254,-7.056 0,0Z" style="fill:white;fill-rule:nonzero;"/>
                    </g>
                    <g transform="matrix(1,0,0,1,995,424)">
                        <path d="M0,0C-2.864,1.91 -4.699,2.593 -7.973,3.438C-8.956,3.693 -9.938,3.948 -10.951,4.211C-12.491,4.602 -12.491,4.602 -14.063,5C-15.062,5.26 -16.062,5.521 -17.092,5.789C-22.593,7.205 -28.793,8.379 -33.671,9.526C-37.914,10.525 -42.15,11.544 -46.361,12.676C-49.99,13.618 -59.049,16.196 -59.59,16.297C-65.151,17.37 -69.673,18.587 -75.188,19.875C-75.833,20.024 -76.478,20.173 -77.142,20.327C-90.053,23.371 -102.813,27.035 -115.563,30.688C-116.312,30.902 -117.062,31.117 -117.835,31.338C-139.321,37.492 -160.762,43.759 -181.924,50.964C-185.489,52.165 -189.065,53.335 -192.641,54.504C-215.144,61.878 -237.407,69.858 -259.655,77.965C-267.859,80.953 -276.071,83.916 -284.297,86.844C-285.629,87.319 -286.96,87.795 -288.291,88.272C-290.085,88.915 -291.88,89.553 -293.676,90.191C-294.665,90.544 -295.654,90.897 -296.673,91.26C-299,92 -299,92 -301,92C-301.29,88.09 -301.575,84.18 -301.854,80.269C-301.996,78.3 -302.143,76.332 -302.289,74.363C-302.844,66.559 -303.649,58.777 -304,50.964C-304.452,40.904 -305,26.58 -305,14C-297.339,13.636 -297.339,13.636 -289.523,13.266C-282.474,12.929 -275.424,12.59 -268.375,12.25C-267.457,12.206 -266.539,12.162 -265.593,12.116C-236.446,10.71 -207.309,9.175 -178.18,7.431C-164.172,6.594 -150.174,5.865 -136.147,5.402C-127.818,5.11 -119.514,4.608 -111.199,4.039C-94.716,2.92 -78.224,2.211 -61.717,1.567C-57.601,1.407 -53.486,1.239 -49.371,1.07C-32.913,0.395 -16.476,-0.259 0,0Z" style="fill:white;fill-rule:nonzero;"/>
                    </g>
                    <g transform="matrix(1,0,0,1,895,459)">
                        <path d="M0,0C-4.712,12.463 -11.976,23.462 -20,34C-20.65,34.875 -21.299,35.751 -21.969,36.652C-56.58,81.221 -106.642,101.6 -161,110C-162.114,110.179 -163.227,110.358 -164.375,110.542C-174.148,111.996 -183.698,112.361 -193.563,112.313C-194.35,112.31 -195.137,112.308 -195.948,112.306C-221.5,112.194 -246.576,108.271 -270.099,97.84C-272.221,96.902 -274.356,95.996 -276.492,95.09C-289.214,89.634 -300.805,83.181 -312,75C-312.996,74.279 -312.996,74.279 -314.012,73.543C-316.031,72.056 -318.019,70.538 -320,69C-320.831,68.355 -321.663,67.711 -322.52,67.047C-327.847,62.809 -332.854,58.348 -337.688,53.563C-338.217,53.042 -338.746,52.522 -339.292,51.986C-343,48.247 -343,48.247 -343,46C-337.588,44.799 -332.338,44.703 -326.813,44.625C-325.822,44.588 -324.831,44.55 -323.811,44.512C-312.501,44.378 -305.07,49.516 -296.5,56.375C-295.021,57.531 -293.54,58.686 -292.059,59.84C-291.358,60.388 -290.658,60.935 -289.937,61.5C-253.815,89.481 -206.567,100.752 -161,95.09C-139.801,92.005 -119.145,88.446 -101.277,76.516C-99.364,75.242 -97.453,74.099 -95.438,73C-76.378,61.911 -59.748,46.695 -46.992,28.766C-36.009,13.518 -20.322,-0.991 0,0Z" style="fill:white;fill-rule:nonzero;"/>
                    </g>
                </g>
            </g>
        </g>
    </g>
</svg>
